<?xml version="1.0" standalone="no"?>
<!DOCTYPE svg PUBLIC "-//W3C//DTD SVG 20010904//EN"
 "http://www.w3.org/TR/2001/REC-SVG-20010904/DTD/svg10.dtd">
<svg version="1.0" xmlns="http://www.w3.org/2000/svg"
 width="1254.000000pt" height="1254.000000pt" viewBox="0 0 1254.000000 1254.000000"
 preserveAspectRatio="xMidYMid meet">

<g transform="translate(0.000000,1254.000000) scale(0.100000,-0.100000)"
fill="#000000" stroke="none">
<path d="M7050 9567 c-82 -23 -166 -91 -203 -164 -25 -48 -279 -827 -500
-1533 -388 -1237 -509 -1620 -652 -2075 -58 -182 -667 -2132 -736 -2355 -16
-52 -29 -115 -29 -140 0 -120 66 -227 174 -280 55 -27 75 -32 137 -31 93 1
156 22 213 73 62 54 87 101 131 243 20 66 65 210 100 320 35 110 109 346 165
525 56 179 145 460 197 625 98 310 405 1289 822 2625 71 228 173 552 226 720
54 168 116 366 140 440 23 74 77 243 120 375 102 318 101 313 86 388 -30 148
-137 242 -286 253 -33 2 -80 -2 -105 -9z"/>
<path d="M4051 8644 c-25 -9 -56 -23 -70 -33 -24 -15 -370 -330 -995 -906
-132 -121 -269 -247 -305 -280 -36 -33 -203 -186 -371 -339 -168 -154 -374
-342 -457 -419 -166 -151 -201 -198 -229 -307 -21 -82 -7 -177 37 -261 36 -66
60 -94 189 -209 52 -47 129 -116 170 -155 41 -38 147 -135 235 -215 173 -157
512 -468 831 -761 244 -224 484 -443 574 -524 37 -33 123 -112 193 -177 153
-142 196 -162 322 -156 131 7 217 66 274 188 21 46 26 69 25 140 0 74 -4 94
-32 153 -40 86 -69 115 -577 578 -220 200 -483 441 -586 534 -102 94 -304 278
-450 410 -145 132 -295 270 -334 306 l-71 66 235 214 c129 118 298 272 375
343 78 71 184 168 236 215 52 48 273 248 490 446 217 198 447 406 510 464 185
169 226 243 218 390 -8 132 -70 226 -187 283 -60 30 -185 35 -250 12z"/>
<path d="M8279 8647 c-91 -34 -155 -93 -196 -182 -23 -50 -27 -73 -27 -140 0
-69 5 -91 31 -147 18 -37 52 -87 80 -115 47 -48 280 -261 908 -830 176 -159
364 -330 417 -379 53 -49 216 -197 362 -329 145 -132 264 -243 263 -246 -2 -7
-140 -135 -587 -544 -157 -143 -350 -321 -430 -395 -80 -74 -231 -214 -335
-310 -615 -569 -602 -556 -642 -638 -34 -68 -38 -83 -38 -156 0 -115 23 -176
94 -246 67 -66 127 -90 222 -90 79 0 140 20 196 63 23 18 122 106 219 197 362
335 852 787 1184 1089 69 63 159 146 200 185 41 39 201 187 355 328 154 142
290 272 302 290 54 80 68 128 68 229 0 90 -2 99 -38 171 -36 74 -48 86 -304
320 -241 219 -745 681 -1183 1082 -90 83 -198 183 -240 221 -41 39 -147 135
-234 215 -88 80 -200 183 -250 228 -121 112 -167 135 -276 139 -55 2 -98 -2
-121 -10z"/>
</g>
</svg>
